<svg xmlns="http://www.w3.org/2000/svg" xmlns:xlink="http://www.w3.org/1999/xlink" width="80" zoomAndPan="magnify" viewBox="0 0 60 74.999997" height="100" preserveAspectRatio="xMidYMid meet" version="1.0"><defs><g/><clipPath id="id1"><path d="M 11.566406 21.59375 L 50.566406 21.59375 L 50.566406 38.84375 L 11.566406 38.84375 Z M 11.566406 21.59375 " clip-rule="nonzero"/></clipPath></defs><g clip-path="url(#id1)"><path fill="rgb(99.609375%, 69.018555%, 41.569519%)" d="M 49.902344 27.136719 L 48.648438 27.136719 L 48.648438 25.289062 C 48.648438 24.949219 48.367188 24.671875 48.019531 24.671875 L 44.878906 24.671875 L 44.878906 22.210938 C 44.878906 21.867188 44.597656 21.59375 44.25 21.59375 L 39.230469 21.59375 C 38.882812 21.59375 38.601562 21.867188 38.601562 22.210938 L 38.601562 27.753906 L 23.53125 27.753906 L 23.53125 22.210938 C 23.53125 21.867188 23.25 21.59375 22.902344 21.59375 L 17.882812 21.59375 C 17.535156 21.59375 17.253906 21.867188 17.253906 22.210938 L 17.253906 24.671875 L 14.113281 24.671875 C 13.765625 24.671875 13.484375 24.949219 13.484375 25.289062 L 13.484375 27.292969 L 12.230469 27.292969 C 11.882812 27.292969 11.601562 27.566406 11.601562 27.90625 L 11.601562 32.683594 C 11.601562 33.023438 11.882812 33.296875 12.230469 33.296875 L 13.484375 33.296875 L 13.484375 35.148438 C 13.484375 35.488281 13.765625 35.761719 14.113281 35.761719 L 17.253906 35.761719 L 17.253906 38.226562 C 17.253906 38.566406 17.535156 38.84375 17.882812 38.84375 L 22.902344 38.84375 C 23.25 38.84375 23.53125 38.566406 23.53125 38.226562 L 23.53125 32.683594 L 38.601562 32.683594 L 38.601562 38.226562 C 38.601562 38.566406 38.882812 38.84375 39.230469 38.84375 L 44.25 38.84375 C 44.597656 38.84375 44.878906 38.566406 44.878906 38.226562 L 44.878906 35.761719 L 48.019531 35.761719 C 48.367188 35.761719 48.648438 35.488281 48.648438 35.148438 L 48.648438 33.144531 L 49.902344 33.144531 C 50.25 33.144531 50.53125 32.867188 50.53125 32.527344 L 50.53125 27.753906 C 50.53125 27.414062 50.25 27.136719 49.902344 27.136719 Z M 13.484375 32.066406 L 12.859375 32.066406 L 12.859375 28.523438 L 13.484375 28.523438 Z M 17.253906 34.53125 L 14.742188 34.53125 L 14.742188 25.90625 L 17.253906 25.90625 Z M 22.277344 37.609375 L 18.507812 37.609375 L 18.507812 22.824219 L 22.277344 22.824219 Z M 38.601562 31.449219 L 23.53125 31.449219 L 23.53125 28.984375 L 38.601562 28.984375 Z M 43.625 37.609375 L 39.855469 37.609375 L 39.855469 22.824219 L 43.625 22.824219 Z M 47.390625 34.53125 L 44.878906 34.53125 L 44.878906 25.90625 L 47.390625 25.90625 Z M 49.273438 31.914062 L 48.648438 31.914062 L 48.648438 28.371094 L 49.273438 28.371094 Z M 49.273438 31.914062 " fill-opacity="1" fill-rule="nonzero"/></g><g fill="rgb(92.939758%, 91.758728%, 86.268616%)" fill-opacity="1"><g transform="translate(10.093489, 65.300096)"><g><path d="M 5.226562 -1.074219 L 5.757812 -2.027344 L 2.539062 -3.828125 L 0.300781 0.167969 L 1.507812 0.84375 L 2.34375 -0.644531 L 4.128906 0.351562 L 4.617188 -0.519531 L 2.832031 -1.519531 L 3.214844 -2.203125 Z M 5.226562 -1.074219 "/></g></g></g><g fill="rgb(92.939758%, 91.758728%, 86.268616%)" fill-opacity="1"><g transform="translate(15.338387, 68.060766)"><g><path d="M 4.269531 -2.128906 L 4.652344 -3.148438 L 1.929688 -4.167969 L 1.546875 -3.148438 L 2.265625 -2.878906 L 1.421875 -0.628906 L 0.703125 -0.898438 L 0.324219 0.121094 L 3.042969 1.140625 L 3.425781 0.121094 L 2.710938 -0.144531 L 3.554688 -2.398438 Z M 4.269531 -2.128906 "/></g></g></g><g fill="rgb(92.939758%, 91.758728%, 86.268616%)" fill-opacity="1"><g transform="translate(20.314372, 69.829812)"><g><path d="M 5.28125 -3.597656 L 1.117188 -4.445312 L 0.902344 -3.378906 L 2.304688 -3.09375 L 1.605469 0.328125 L 2.960938 0.605469 L 3.660156 -2.816406 L 5.066406 -2.53125 Z M 5.28125 -3.597656 "/></g></g></g><g fill="rgb(92.939758%, 91.758728%, 86.268616%)" fill-opacity="1"><g transform="translate(26.608451, 70.99163)"><g><path d="M 3.960938 -4.515625 L 3.902344 -1.085938 C 3.859375 -1.257812 3.804688 -1.433594 3.746094 -1.589844 L 2.664062 -4.539062 L 0.417969 -4.574219 L 0.34375 0.00390625 L 1.652344 0.0273438 L 1.710938 -3.402344 C 1.761719 -3.195312 1.820312 -3 1.886719 -2.8125 L 2.949219 0.046875 L 5.191406 0.0859375 L 5.269531 -4.496094 Z M 3.960938 -4.515625 "/></g></g></g><g fill="rgb(92.939758%, 91.758728%, 86.268616%)" fill-opacity="1"><g transform="translate(33.868213, 70.902287)"><g><path d="M 1.527344 -1.355469 L 1.40625 -2.082031 L 3.519531 -2.433594 L 3.355469 -3.417969 L 1.242188 -3.070312 L 1.132812 -3.726562 L 3.453125 -4.113281 L 3.273438 -5.1875 L -0.410156 -4.574219 L 0.339844 -0.0546875 L 4.042969 -0.671875 L 3.863281 -1.746094 Z M 1.527344 -1.355469 "/></g></g></g><g fill="rgb(92.939758%, 91.758728%, 86.268616%)" fill-opacity="1"><g transform="translate(39.8407, 69.778047)"><g><path d="M -0.285156 -1.460938 C 0.0429688 -0.722656 0.792969 -0.148438 2.226562 -0.644531 C 3.691406 -1.152344 4.015625 -1.933594 3.722656 -2.785156 C 3.445312 -3.585938 2.855469 -3.921875 1.820312 -3.660156 L 1.046875 -3.464844 C 0.726562 -3.382812 0.558594 -3.488281 0.492188 -3.675781 C 0.414062 -3.910156 0.617188 -4.125 0.972656 -4.25 C 1.378906 -4.390625 1.675781 -4.289062 1.8125 -4.015625 L 3.101562 -4.460938 C 2.785156 -5.203125 2.015625 -5.660156 0.644531 -5.183594 C -0.632812 -4.742188 -1.078125 -3.964844 -0.789062 -3.125 C -0.527344 -2.367188 0.101562 -2.066406 0.933594 -2.261719 L 1.882812 -2.480469 C 2.167969 -2.542969 2.359375 -2.476562 2.445312 -2.230469 C 2.53125 -1.976562 2.371094 -1.746094 1.929688 -1.589844 C 1.40625 -1.410156 1.113281 -1.652344 0.984375 -1.898438 Z M -0.285156 -1.460938 "/></g></g></g><g fill="rgb(92.939758%, 91.758728%, 86.268616%)" fill-opacity="1"><g transform="translate(45.801902, 67.563219)"><g><path d="M -0.53125 -1.390625 C -0.0820312 -0.71875 0.757812 -0.285156 2.082031 -1.015625 C 3.4375 -1.765625 3.628906 -2.59375 3.191406 -3.382812 C 2.78125 -4.125 2.144531 -4.355469 1.164062 -3.917969 L 0.4375 -3.59375 C 0.136719 -3.457031 -0.046875 -3.53125 -0.144531 -3.707031 C -0.261719 -3.921875 -0.101562 -4.171875 0.230469 -4.351562 C 0.605469 -4.558594 0.914062 -4.511719 1.097656 -4.265625 L 2.292969 -4.925781 C 1.855469 -5.605469 1.019531 -5.921875 -0.253906 -5.21875 C -1.4375 -4.566406 -1.742188 -3.71875 -1.3125 -2.941406 C -0.925781 -2.242188 -0.253906 -2.054688 0.53125 -2.386719 L 1.429688 -2.765625 C 1.699219 -2.875 1.898438 -2.84375 2.027344 -2.613281 C 2.15625 -2.378906 2.035156 -2.125 1.628906 -1.898438 C 1.144531 -1.632812 0.8125 -1.820312 0.644531 -2.039062 Z M -0.53125 -1.390625 "/></g></g></g><g fill="rgb(92.939758%, 91.758728%, 86.268616%)" fill-opacity="1"><g transform="translate(14.214081, 17.562238)"><g><path d="M 4.277344 -1.65625 C 6.121094 -2.46875 6.382812 -3.585938 6.339844 -4.464844 L 6.957031 -3.070312 L 8.96875 -3.960938 L 6.960938 -8.503906 L 2.320312 -6.453125 L 2.972656 -4.976562 L 5.3125 -6.007812 C 5.542969 -5.15625 5.386719 -4.363281 4.078125 -3.785156 C 2.832031 -3.234375 1.882812 -3.742188 1.1875 -5.316406 C 0.421875 -7.050781 0.894531 -8.042969 2.167969 -8.605469 C 3.136719 -9.03125 3.875 -8.804688 4.15625 -8.335938 L 6.578125 -9.40625 C 5.863281 -10.828125 4.210938 -11.71875 1.3125 -10.441406 C -1.910156 -9.019531 -2.375 -6.527344 -1.351562 -4.210938 C -0.351562 -1.945312 1.671875 -0.507812 4.277344 -1.65625 Z M 4.277344 -1.65625 "/></g></g></g><g fill="rgb(92.939758%, 91.758728%, 86.268616%)" fill-opacity="1"><g transform="translate(23.809179, 13.389061)"><g><path d="M 6.140625 -9.105469 L 5.144531 -6.339844 C 4.953125 -5.828125 4.792969 -5.316406 4.644531 -4.804688 C 4.460938 -5.300781 4.253906 -5.792969 4.03125 -6.289062 L 2.820312 -8.949219 L -0.144531 -8.8125 L 3.449219 -2.574219 L 3.558594 -0.164062 L 6.21875 -0.289062 L 6.109375 -2.699219 L 9.082031 -9.242188 Z M 6.140625 -9.105469 "/></g></g></g><g fill="rgb(92.939758%, 91.758728%, 86.268616%)" fill-opacity="1"><g transform="translate(33.442171, 12.538032)"><g><path d="M 15.042969 -3.625 L 10.890625 -5.230469 L 7.332031 -0.257812 L 8.046875 -6.332031 L 3.796875 -7.976562 L 0.617188 0.238281 L 3.089844 1.195312 L 5.683594 -5.511719 L 4.90625 1.898438 L 7.585938 2.9375 L 11.96875 -3.023438 L 9.390625 3.632812 L 11.859375 4.589844 Z M 15.042969 -3.625 "/></g></g></g><g fill="rgb(92.939758%, 91.758728%, 86.268616%)" fill-opacity="1"><g transform="translate(16.644849, 44.83222)"><g><path d="M 1.34375 -2.0625 L 1.34375 0 L 0.828125 0 L 0.828125 -2.0625 L 0.046875 -2.0625 L 0.046875 -2.46875 L 2.140625 -2.46875 L 2.140625 -2.0625 Z M 1.34375 -2.0625 "/></g></g></g><g fill="rgb(92.939758%, 91.758728%, 86.268616%)" fill-opacity="1"><g transform="translate(19.63465, 44.83222)"><g><path d="M 1.265625 0.03125 C 0.921875 0.03125 0.660156 -0.0507812 0.484375 -0.21875 C 0.304688 -0.382812 0.21875 -0.617188 0.21875 -0.921875 L 0.21875 -2.46875 L 0.734375 -2.46875 L 0.734375 -0.96875 C 0.734375 -0.769531 0.78125 -0.617188 0.875 -0.515625 C 0.96875 -0.421875 1.101562 -0.375 1.28125 -0.375 C 1.457031 -0.375 1.59375 -0.425781 1.6875 -0.53125 C 1.789062 -0.632812 1.84375 -0.785156 1.84375 -0.984375 L 1.84375 -2.46875 L 2.359375 -2.46875 L 2.359375 -0.953125 C 2.359375 -0.640625 2.257812 -0.394531 2.0625 -0.21875 C 1.875 -0.0507812 1.609375 0.03125 1.265625 0.03125 Z M 1.265625 0.03125 "/></g></g></g><g fill="rgb(92.939758%, 91.758728%, 86.268616%)" fill-opacity="1"><g transform="translate(23.022527, 44.83222)"><g/></g></g><g fill="rgb(92.939758%, 91.758728%, 86.268616%)" fill-opacity="1"><g transform="translate(24.82159, 44.83222)"><g><path d="M 1.390625 -0.375 C 1.703125 -0.375 1.914062 -0.53125 2.03125 -0.84375 L 2.484375 -0.671875 C 2.390625 -0.429688 2.25 -0.253906 2.0625 -0.140625 C 1.875 -0.0234375 1.648438 0.03125 1.390625 0.03125 C 0.992188 0.03125 0.6875 -0.078125 0.46875 -0.296875 C 0.25 -0.523438 0.140625 -0.84375 0.140625 -1.25 C 0.140625 -1.644531 0.242188 -1.953125 0.453125 -2.171875 C 0.660156 -2.390625 0.960938 -2.5 1.359375 -2.5 C 1.648438 -2.5 1.882812 -2.441406 2.0625 -2.328125 C 2.25 -2.210938 2.378906 -2.039062 2.453125 -1.8125 L 2 -1.6875 C 1.957031 -1.8125 1.878906 -1.910156 1.765625 -1.984375 C 1.660156 -2.054688 1.53125 -2.09375 1.375 -2.09375 C 1.144531 -2.09375 0.96875 -2.019531 0.84375 -1.875 C 0.726562 -1.726562 0.671875 -1.519531 0.671875 -1.25 C 0.671875 -0.957031 0.726562 -0.738281 0.84375 -0.59375 C 0.96875 -0.445312 1.148438 -0.375 1.390625 -0.375 Z M 1.390625 -0.375 "/></g></g></g><g fill="rgb(92.939758%, 91.758728%, 86.268616%)" fill-opacity="1"><g transform="translate(28.209467, 44.83222)"><g><path d="M 1.984375 0 L 1.765625 -0.625 L 0.828125 -0.625 L 0.609375 0 L 0.09375 0 L 0.984375 -2.46875 L 1.59375 -2.46875 L 2.484375 0 Z M 1.296875 -2.078125 L 1.28125 -2.046875 C 1.269531 -2.003906 1.253906 -1.957031 1.234375 -1.90625 C 1.222656 -1.851562 1.125 -1.554688 0.9375 -1.015625 L 1.640625 -1.015625 L 1.40625 -1.71875 L 1.328125 -1.96875 Z M 1.296875 -2.078125 "/></g></g></g><g fill="rgb(92.939758%, 91.758728%, 86.268616%)" fill-opacity="1"><g transform="translate(31.597344, 44.83222)"><g><path d="M 2.28125 0 L 2.28125 -1.484375 C 2.28125 -1.523438 2.28125 -1.5625 2.28125 -1.59375 C 2.28125 -1.625 2.285156 -1.769531 2.296875 -2.03125 C 2.210938 -1.71875 2.15625 -1.5 2.125 -1.375 L 1.671875 0 L 1.3125 0 L 0.859375 -1.375 L 0.671875 -2.03125 C 0.691406 -1.757812 0.703125 -1.578125 0.703125 -1.484375 L 0.703125 0 L 0.234375 0 L 0.234375 -2.46875 L 0.921875 -2.46875 L 1.375 -1.078125 L 1.40625 -0.953125 L 1.484375 -0.625 L 1.609375 -1.015625 L 2.046875 -2.46875 L 2.734375 -2.46875 L 2.734375 0 Z M 2.28125 0 "/></g></g></g><g fill="rgb(92.939758%, 91.758728%, 86.268616%)" fill-opacity="1"><g transform="translate(35.381551, 44.83222)"><g><path d="M 0.234375 0 L 0.234375 -2.46875 L 0.75 -2.46875 L 0.75 0 Z M 0.234375 0 "/></g></g></g><g fill="rgb(92.939758%, 91.758728%, 86.268616%)" fill-opacity="1"><g transform="translate(37.180614, 44.83222)"><g><path d="M 1.734375 0 L 0.671875 -1.890625 C 0.691406 -1.710938 0.703125 -1.566406 0.703125 -1.453125 L 0.703125 0 L 0.234375 0 L 0.234375 -2.46875 L 0.828125 -2.46875 L 1.921875 -0.546875 C 1.898438 -0.722656 1.890625 -0.882812 1.890625 -1.03125 L 1.890625 -2.46875 L 2.34375 -2.46875 L 2.34375 0 Z M 1.734375 0 "/></g></g></g><g fill="rgb(92.939758%, 91.758728%, 86.268616%)" fill-opacity="1"><g transform="translate(40.568491, 44.83222)"><g><path d="M 2.640625 -1.25 C 2.640625 -0.988281 2.585938 -0.757812 2.484375 -0.5625 C 2.378906 -0.375 2.234375 -0.226562 2.046875 -0.125 C 1.859375 -0.0195312 1.640625 0.03125 1.390625 0.03125 C 1.003906 0.03125 0.695312 -0.078125 0.46875 -0.296875 C 0.25 -0.523438 0.140625 -0.84375 0.140625 -1.25 C 0.140625 -1.632812 0.25 -1.9375 0.46875 -2.15625 C 0.6875 -2.382812 0.992188 -2.5 1.390625 -2.5 C 1.773438 -2.5 2.078125 -2.382812 2.296875 -2.15625 C 2.523438 -1.9375 2.640625 -1.632812 2.640625 -1.25 Z M 2.109375 -1.25 C 2.109375 -1.507812 2.046875 -1.710938 1.921875 -1.859375 C 1.796875 -2.015625 1.617188 -2.09375 1.390625 -2.09375 C 1.160156 -2.09375 0.984375 -2.015625 0.859375 -1.859375 C 0.734375 -1.710938 0.671875 -1.507812 0.671875 -1.25 C 0.671875 -0.976562 0.734375 -0.765625 0.859375 -0.609375 C 0.984375 -0.453125 1.160156 -0.375 1.390625 -0.375 C 1.617188 -0.375 1.796875 -0.445312 1.921875 -0.59375 C 2.046875 -0.75 2.109375 -0.96875 2.109375 -1.25 Z M 2.109375 -1.25 "/></g></g></g><g fill="rgb(92.939758%, 91.758728%, 86.268616%)" fill-opacity="1"><g transform="translate(20.330102, 50.441167)"><g><path d="M 1.984375 0 L 1.765625 -0.625 L 0.828125 -0.625 L 0.609375 0 L 0.09375 0 L 0.984375 -2.46875 L 1.59375 -2.46875 L 2.484375 0 Z M 1.296875 -2.078125 L 1.28125 -2.046875 C 1.269531 -2.003906 1.253906 -1.957031 1.234375 -1.90625 C 1.222656 -1.851562 1.125 -1.554688 0.9375 -1.015625 L 1.640625 -1.015625 L 1.40625 -1.71875 L 1.328125 -1.96875 Z M 1.296875 -2.078125 "/></g></g></g><g fill="rgb(92.939758%, 91.758728%, 86.268616%)" fill-opacity="1"><g transform="translate(23.717979, 50.441167)"><g/></g></g><g fill="rgb(92.939758%, 91.758728%, 86.268616%)" fill-opacity="1"><g transform="translate(25.517043, 50.441167)"><g><path d="M 1.34375 -2.0625 L 1.34375 0 L 0.828125 0 L 0.828125 -2.0625 L 0.046875 -2.0625 L 0.046875 -2.46875 L 2.140625 -2.46875 L 2.140625 -2.0625 Z M 1.34375 -2.0625 "/></g></g></g><g fill="rgb(92.939758%, 91.758728%, 86.268616%)" fill-opacity="1"><g transform="translate(28.506843, 50.441167)"><g><path d="M 1.265625 0.03125 C 0.921875 0.03125 0.660156 -0.0507812 0.484375 -0.21875 C 0.304688 -0.382812 0.21875 -0.617188 0.21875 -0.921875 L 0.21875 -2.46875 L 0.734375 -2.46875 L 0.734375 -0.96875 C 0.734375 -0.769531 0.78125 -0.617188 0.875 -0.515625 C 0.96875 -0.421875 1.101562 -0.375 1.28125 -0.375 C 1.457031 -0.375 1.59375 -0.425781 1.6875 -0.53125 C 1.789062 -0.632812 1.84375 -0.785156 1.84375 -0.984375 L 1.84375 -2.46875 L 2.359375 -2.46875 L 2.359375 -0.953125 C 2.359375 -0.640625 2.257812 -0.394531 2.0625 -0.21875 C 1.875 -0.0507812 1.609375 0.03125 1.265625 0.03125 Z M 1.15625 -2.671875 L 1.15625 -2.734375 L 1.59375 -3.171875 L 2.046875 -3.171875 L 2.046875 -3.09375 L 1.453125 -2.671875 Z M 1.15625 -2.671875 "/></g></g></g><g fill="rgb(92.939758%, 91.758728%, 86.268616%)" fill-opacity="1"><g transform="translate(31.89472, 50.441167)"><g/></g></g><g fill="rgb(92.939758%, 91.758728%, 86.268616%)" fill-opacity="1"><g transform="translate(33.693783, 50.441167)"><g><path d="M 1.453125 -1.015625 L 1.453125 0 L 0.9375 0 L 0.9375 -1.015625 L 0.0625 -2.46875 L 0.59375 -2.46875 L 1.1875 -1.421875 L 1.796875 -2.46875 L 2.328125 -2.46875 Z M 1.453125 -1.015625 "/></g></g></g><g fill="rgb(92.939758%, 91.758728%, 86.268616%)" fill-opacity="1"><g transform="translate(36.884368, 50.441167)"><g><path d="M 2.640625 -1.25 C 2.640625 -0.988281 2.585938 -0.757812 2.484375 -0.5625 C 2.378906 -0.375 2.234375 -0.226562 2.046875 -0.125 C 1.859375 -0.0195312 1.640625 0.03125 1.390625 0.03125 C 1.003906 0.03125 0.695312 -0.078125 0.46875 -0.296875 C 0.25 -0.523438 0.140625 -0.84375 0.140625 -1.25 C 0.140625 -1.632812 0.25 -1.9375 0.46875 -2.15625 C 0.6875 -2.382812 0.992188 -2.5 1.390625 -2.5 C 1.773438 -2.5 2.078125 -2.382812 2.296875 -2.15625 C 2.523438 -1.9375 2.640625 -1.632812 2.640625 -1.25 Z M 2.109375 -1.25 C 2.109375 -1.507812 2.046875 -1.710938 1.921875 -1.859375 C 1.796875 -2.015625 1.617188 -2.09375 1.390625 -2.09375 C 1.160156 -2.09375 0.984375 -2.015625 0.859375 -1.859375 C 0.734375 -1.710938 0.671875 -1.507812 0.671875 -1.25 C 0.671875 -0.976562 0.734375 -0.765625 0.859375 -0.609375 C 0.984375 -0.453125 1.160156 -0.375 1.390625 -0.375 C 1.617188 -0.375 1.796875 -0.445312 1.921875 -0.59375 C 2.046875 -0.75 2.109375 -0.96875 2.109375 -1.25 Z M 2.109375 -1.25 "/></g></g></g><g fill="rgb(92.939758%, 91.758728%, 86.268616%)" fill-opacity="1"><g transform="translate(25.220403, 56.050113)"><g><path d="M 2.28125 0 L 2.28125 -1.484375 C 2.28125 -1.523438 2.28125 -1.5625 2.28125 -1.59375 C 2.28125 -1.625 2.285156 -1.769531 2.296875 -2.03125 C 2.210938 -1.71875 2.15625 -1.5 2.125 -1.375 L 1.671875 0 L 1.3125 0 L 0.859375 -1.375 L 0.671875 -2.03125 C 0.691406 -1.757812 0.703125 -1.578125 0.703125 -1.484375 L 0.703125 0 L 0.234375 0 L 0.234375 -2.46875 L 0.921875 -2.46875 L 1.375 -1.078125 L 1.40625 -0.953125 L 1.484375 -0.625 L 1.609375 -1.015625 L 2.046875 -2.46875 L 2.734375 -2.46875 L 2.734375 0 Z M 2.28125 0 "/></g></g></g><g fill="rgb(92.939758%, 91.758728%, 86.268616%)" fill-opacity="1"><g transform="translate(29.00461, 56.050113)"><g><path d="M 1.984375 0 L 1.765625 -0.625 L 0.828125 -0.625 L 0.609375 0 L 0.09375 0 L 0.984375 -2.46875 L 1.59375 -2.46875 L 2.484375 0 Z M 1.296875 -2.078125 L 1.28125 -2.046875 C 1.269531 -2.003906 1.253906 -1.957031 1.234375 -1.90625 C 1.222656 -1.851562 1.125 -1.554688 0.9375 -1.015625 L 1.640625 -1.015625 L 1.40625 -1.71875 L 1.328125 -1.96875 Z M 1.15625 -2.671875 L 1.15625 -2.734375 L 1.59375 -3.171875 L 2.046875 -3.171875 L 2.046875 -3.09375 L 1.453125 -2.671875 Z M 1.15625 -2.671875 "/></g></g></g><g fill="rgb(92.939758%, 91.758728%, 86.268616%)" fill-opacity="1"><g transform="translate(32.392487, 56.050113)"><g><path d="M 2.25 -0.703125 C 2.25 -0.460938 2.15625 -0.28125 1.96875 -0.15625 C 1.789062 -0.03125 1.53125 0.03125 1.1875 0.03125 C 0.875 0.03125 0.628906 -0.0195312 0.453125 -0.125 C 0.273438 -0.238281 0.160156 -0.410156 0.109375 -0.640625 L 0.59375 -0.71875 C 0.632812 -0.59375 0.703125 -0.5 0.796875 -0.4375 C 0.890625 -0.375 1.023438 -0.34375 1.203125 -0.34375 C 1.566406 -0.34375 1.75 -0.453125 1.75 -0.671875 C 1.75 -0.742188 1.726562 -0.800781 1.6875 -0.84375 C 1.644531 -0.894531 1.582031 -0.9375 1.5 -0.96875 C 1.425781 -1 1.285156 -1.035156 1.078125 -1.078125 C 0.890625 -1.117188 0.757812 -1.148438 0.6875 -1.171875 C 0.613281 -1.203125 0.546875 -1.234375 0.484375 -1.265625 C 0.429688 -1.304688 0.382812 -1.347656 0.34375 -1.390625 C 0.300781 -1.441406 0.269531 -1.5 0.25 -1.5625 C 0.226562 -1.632812 0.21875 -1.71875 0.21875 -1.8125 C 0.21875 -2.03125 0.300781 -2.195312 0.46875 -2.3125 C 0.632812 -2.4375 0.878906 -2.5 1.203125 -2.5 C 1.503906 -2.5 1.726562 -2.453125 1.875 -2.359375 C 2.03125 -2.265625 2.132812 -2.101562 2.1875 -1.875 L 1.6875 -1.8125 C 1.65625 -1.914062 1.597656 -1.992188 1.515625 -2.046875 C 1.441406 -2.109375 1.332031 -2.140625 1.1875 -2.140625 C 0.875 -2.140625 0.71875 -2.039062 0.71875 -1.84375 C 0.71875 -1.78125 0.734375 -1.726562 0.765625 -1.6875 C 0.796875 -1.644531 0.84375 -1.609375 0.90625 -1.578125 C 0.976562 -1.546875 1.113281 -1.507812 1.3125 -1.46875 C 1.550781 -1.414062 1.71875 -1.367188 1.8125 -1.328125 C 1.914062 -1.285156 2 -1.234375 2.0625 -1.171875 C 2.125 -1.117188 2.171875 -1.050781 2.203125 -0.96875 C 2.234375 -0.894531 2.25 -0.804688 2.25 -0.703125 Z M 2.25 -0.703125 "/></g></g></g><g fill="rgb(92.939758%, 91.758728%, 86.268616%)" fill-opacity="1"><g transform="translate(20.834031, 61.659059)"><g><path d="M 0.75 -2.0625 L 0.75 -1.296875 L 2.015625 -1.296875 L 2.015625 -0.90625 L 0.75 -0.90625 L 0.75 0 L 0.234375 0 L 0.234375 -2.46875 L 2.046875 -2.46875 L 2.046875 -2.0625 Z M 0.75 -2.0625 "/></g></g></g><g fill="rgb(92.939758%, 91.758728%, 86.268616%)" fill-opacity="1"><g transform="translate(23.823832, 61.659059)"><g><path d="M 1.265625 0.03125 C 0.921875 0.03125 0.660156 -0.0507812 0.484375 -0.21875 C 0.304688 -0.382812 0.21875 -0.617188 0.21875 -0.921875 L 0.21875 -2.46875 L 0.734375 -2.46875 L 0.734375 -0.96875 C 0.734375 -0.769531 0.78125 -0.617188 0.875 -0.515625 C 0.96875 -0.421875 1.101562 -0.375 1.28125 -0.375 C 1.457031 -0.375 1.59375 -0.425781 1.6875 -0.53125 C 1.789062 -0.632812 1.84375 -0.785156 1.84375 -0.984375 L 1.84375 -2.46875 L 2.359375 -2.46875 L 2.359375 -0.953125 C 2.359375 -0.640625 2.257812 -0.394531 2.0625 -0.21875 C 1.875 -0.0507812 1.609375 0.03125 1.265625 0.03125 Z M 1.265625 0.03125 "/></g></g></g><g fill="rgb(92.939758%, 91.758728%, 86.268616%)" fill-opacity="1"><g transform="translate(27.211709, 61.659059)"><g><path d="M 0.234375 0 L 0.234375 -2.46875 L 2.171875 -2.46875 L 2.171875 -2.0625 L 0.75 -2.0625 L 0.75 -1.4375 L 2.0625 -1.4375 L 2.0625 -1.046875 L 0.75 -1.046875 L 0.75 -0.390625 L 2.25 -0.390625 L 2.25 0 Z M 0.234375 0 "/></g></g></g><g fill="rgb(92.939758%, 91.758728%, 86.268616%)" fill-opacity="1"><g transform="translate(30.402293, 61.659059)"><g><path d="M 1.9375 0 L 1.359375 -0.9375 L 0.75 -0.9375 L 0.75 0 L 0.234375 0 L 0.234375 -2.46875 L 1.46875 -2.46875 C 1.757812 -2.46875 1.984375 -2.398438 2.140625 -2.265625 C 2.304688 -2.140625 2.390625 -1.960938 2.390625 -1.734375 C 2.390625 -1.554688 2.335938 -1.40625 2.234375 -1.28125 C 2.140625 -1.15625 2.007812 -1.070312 1.84375 -1.03125 L 2.515625 0 Z M 1.875 -1.703125 C 1.875 -1.941406 1.722656 -2.0625 1.421875 -2.0625 L 0.75 -2.0625 L 0.75 -1.328125 L 1.421875 -1.328125 C 1.566406 -1.328125 1.675781 -1.359375 1.75 -1.421875 C 1.832031 -1.492188 1.875 -1.585938 1.875 -1.703125 Z M 1.875 -1.703125 "/></g></g></g><g fill="rgb(92.939758%, 91.758728%, 86.268616%)" fill-opacity="1"><g transform="translate(33.79017, 61.659059)"><g><path d="M 1.34375 -2.0625 L 1.34375 0 L 0.828125 0 L 0.828125 -2.0625 L 0.046875 -2.0625 L 0.046875 -2.46875 L 2.140625 -2.46875 L 2.140625 -2.0625 Z M 1.34375 -2.0625 "/></g></g></g><g fill="rgb(92.939758%, 91.758728%, 86.268616%)" fill-opacity="1"><g transform="translate(36.779971, 61.659059)"><g><path d="M 0.234375 0 L 0.234375 -2.46875 L 2.171875 -2.46875 L 2.171875 -2.0625 L 0.75 -2.0625 L 0.75 -1.4375 L 2.0625 -1.4375 L 2.0625 -1.046875 L 0.75 -1.046875 L 0.75 -0.390625 L 2.25 -0.390625 L 2.25 0 Z M 0.234375 0 "/></g></g></g></svg>