<svg xmlns="http://www.w3.org/2000/svg" xmlns:xlink="http://www.w3.org/1999/xlink" width="500" zoomAndPan="magnify" viewBox="0 0 375 374.999991" height="500" preserveAspectRatio="xMidYMid meet" version="1.0"><defs><clipPath id="id1"><path d="M 97 87.703125 L 102 87.703125 L 102 164.953125 L 97 164.953125 Z M 97 87.703125 " clip-rule="nonzero"/></clipPath><clipPath id="id2"><path d="M 277 87.703125 L 281 87.703125 L 281 164.953125 L 277 164.953125 Z M 277 87.703125 " clip-rule="nonzero"/></clipPath></defs><path fill="rgb(0%, 0%, 0%)" d="M 186.816406 155.632812 L 177.355469 117.632812 L 171.128906 130.578125 L 104.796875 130.578125 L 104.796875 123.425781 L 166.613281 123.425781 L 179.511719 96.617188 L 189.175781 135.429688 L 195.375 123.425781 L 240.117188 123.425781 L 240.117188 130.578125 L 199.75 130.578125 Z M 186.816406 155.632812 " fill-opacity="1" fill-rule="nonzero"/><path fill="rgb(0%, 0%, 0%)" d="M 142.019531 156.648438 C 142.019531 158.917969 140.175781 160.757812 137.898438 160.757812 L 103.4375 160.757812 C 101.164062 160.757812 99.320312 158.917969 99.320312 156.648438 L 99.320312 96.007812 C 99.320312 93.738281 101.164062 91.898438 103.4375 91.898438 L 137.898438 91.898438 C 140.175781 91.898438 142.019531 93.738281 142.019531 96.007812 Z M 142.019531 156.648438 " fill-opacity="1" fill-rule="nonzero"/><path fill="rgb(0%, 0%, 0%)" d="M 99.320312 150.945312 C 99.320312 152.273438 98.238281 153.351562 96.90625 153.351562 L 76.726562 153.351562 C 75.394531 153.351562 74.3125 152.273438 74.3125 150.945312 L 74.3125 101.710938 C 74.3125 100.382812 75.394531 99.304688 76.726562 99.304688 L 96.90625 99.304688 C 98.238281 99.304688 99.320312 100.382812 99.320312 101.710938 Z M 99.320312 150.945312 " fill-opacity="1" fill-rule="nonzero"/><g clip-path="url(#id1)"><path fill="rgb(100%, 100%, 100%)" d="M 97.527344 87.695312 L 101.113281 87.695312 L 101.113281 164.960938 L 97.527344 164.960938 Z M 97.527344 87.695312 " fill-opacity="1" fill-rule="nonzero"/></g><path fill="rgb(0%, 0%, 0%)" d="M 236.132812 156.648438 C 236.132812 158.917969 237.976562 160.757812 240.25 160.757812 L 274.714844 160.757812 C 276.988281 160.757812 278.832031 158.917969 278.832031 156.648438 L 278.832031 96.007812 C 278.832031 93.738281 276.988281 91.898438 274.714844 91.898438 L 240.25 91.898438 C 237.976562 91.898438 236.132812 93.738281 236.132812 96.007812 Z M 236.132812 156.648438 " fill-opacity="1" fill-rule="nonzero"/><path fill="rgb(0%, 0%, 0%)" d="M 278.832031 150.945312 C 278.832031 152.273438 279.910156 153.351562 281.246094 153.351562 L 301.425781 153.351562 C 302.757812 153.351562 303.835938 152.273438 303.835938 150.945312 L 303.835938 101.710938 C 303.835938 100.382812 302.757812 99.304688 301.425781 99.304688 L 281.246094 99.304688 C 279.910156 99.304688 278.832031 100.382812 278.832031 101.710938 Z M 278.832031 150.945312 " fill-opacity="1" fill-rule="nonzero"/><g clip-path="url(#id2)"><path fill="rgb(100%, 100%, 100%)" d="M 277.039062 87.695312 L 280.625 87.695312 L 280.625 164.960938 L 277.039062 164.960938 Z M 277.039062 87.695312 " fill-opacity="1" fill-rule="nonzero"/></g><path fill="rgb(100%, 100%, 100%)" d="M 270.671875 103.097656 C 271.050781 103.597656 271.394531 104.117188 271.695312 104.660156 C 272 105.203125 272.261719 105.753906 272.476562 106.316406 C 272.691406 106.878906 272.863281 107.441406 272.984375 108.003906 C 273.105469 108.566406 273.175781 109.117188 273.195312 109.65625 C 273.214844 110.195312 273.1875 110.714844 273.105469 111.214844 C 273.027344 111.710938 272.894531 112.175781 272.71875 112.613281 C 272.539062 113.046875 272.316406 113.445312 272.046875 113.800781 C 271.777344 114.160156 271.46875 114.46875 271.117188 114.734375 C 270.769531 115 270.382812 115.210938 269.96875 115.375 C 269.550781 115.535156 269.105469 115.644531 268.636719 115.695312 C 268.167969 115.75 267.683594 115.746094 267.183594 115.691406 C 266.679688 115.632812 266.171875 115.519531 265.65625 115.355469 C 265.140625 115.1875 264.628906 114.972656 264.117188 114.703125 C 263.609375 114.4375 263.109375 114.121094 262.625 113.761719 C 262.140625 113.402344 261.679688 113.003906 261.238281 112.5625 C 260.796875 112.125 260.390625 111.65625 260.007812 111.15625 C 259.628906 110.660156 259.289062 110.136719 258.984375 109.597656 C 258.679688 109.054688 258.421875 108.503906 258.203125 107.941406 C 257.988281 107.378906 257.820312 106.816406 257.699219 106.253906 C 257.578125 105.691406 257.507812 105.140625 257.484375 104.601562 C 257.464844 104.058594 257.496094 103.539062 257.574219 103.042969 C 257.65625 102.546875 257.785156 102.078125 257.964844 101.644531 C 258.140625 101.207031 258.363281 100.8125 258.632812 100.457031 C 258.902344 100.097656 259.214844 99.789062 259.5625 99.523438 C 259.914062 99.257812 260.296875 99.046875 260.714844 98.882812 C 261.132812 98.722656 261.574219 98.613281 262.042969 98.558594 C 262.511719 98.507812 262.996094 98.507812 263.5 98.566406 C 264 98.625 264.507812 98.734375 265.023438 98.902344 C 265.539062 99.066406 266.054688 99.285156 266.5625 99.554688 C 267.074219 99.820312 267.570312 100.136719 268.054688 100.496094 C 268.539062 100.855469 269 101.253906 269.441406 101.691406 C 269.882812 102.132812 270.292969 102.601562 270.671875 103.097656 Z M 270.671875 103.097656 " fill-opacity="1" fill-rule="nonzero"/><path stroke-linecap="butt" transform="matrix(0.75, 0, 0, 0.75, 65.541958, 192.692932)" fill="none" stroke-linejoin="miter" d="M 112.98573 37.794843 C 121.428439 37.794843 125.813856 35.341718 129.24094 32.555259 L 131.92844 12.23755 L 115.714897 12.23755 L 114.459689 21.596925 L 119.824272 21.596925 L 119.084689 27.305259 C 117.944064 27.930259 115.839897 28.445884 114.183647 28.445884 L 113.558647 28.445884 C 108.136772 28.445884 107.105522 23.654217 108.136772 15.883383 L 108.418022 13.727133 C 109.449272 6.024008 111.214897 1.065674 116.636772 1.065674 L 117.261772 1.065674 C 121.537814 1.065674 122.162814 4.477132 121.480523 9.617758 L 132.319065 9.617758 L 132.610732 7.388591 C 133.975315 -3.335368 128.501356 -8.293702 117.610731 -8.293702 C 105.615938 -8.293702 99.459688 -1.679118 97.412813 13.727133 L 97.121146 15.883383 C 95.074271 31.289634 101.006563 37.794843 112.98573 37.794843 Z M 161.016984 23.310467 L 177.673235 -7.502035 L 165.80865 -7.502035 L 157.365942 9.951091 L 153.480525 -7.502035 L 141.610732 -7.502035 L 150.178441 23.310467 L 148.407608 36.997968 L 159.24615 36.997968 Z M 217.095112 11.3313 L 215.66282 19.883383 L 213.449279 36.997968 L 224.282613 36.997968 L 230.10553 -7.502035 L 213.964904 -7.502035 L 204.199278 18.169842 L 201.178444 -7.502035 L 185.03261 -7.502035 L 179.209693 36.997968 L 190.048235 36.997968 L 192.277402 19.883383 L 193.141986 11.3313 L 196.162819 36.997968 L 207.334695 36.997968 Z M 217.095112 11.3313 " stroke="rgb(0%, 0%, 0%)" stroke-width="1.640211" stroke-opacity="1" stroke-miterlimit="4"/><path stroke-linecap="butt" transform="matrix(0.75, 0, 0, 0.75, 58.657021, 240.641175)" fill="none" stroke-linejoin="miter" d="M 9.061473 -10.099693 L 1.202098 49.999269 L 15.837515 49.999269 L 18.993765 25.660726 L 38.259392 25.660726 L 39.9521 13.0201 L 20.686474 13.0201 L 22.082307 2.540933 L 45.196892 2.540933 L 46.816684 -10.099693 Z M 73.019811 -10.099693 L 58.36356 -10.099693 L 50.519809 49.999269 L 65.155227 49.999269 Z M 110.696896 2.540933 L 124.165647 2.540933 L 125.780231 -10.099693 L 84.191686 -10.099693 L 82.571895 2.540933 L 96.040645 2.540933 L 89.816687 49.999269 L 104.452104 49.999269 Z M 182.040651 -10.099693 L 168.160442 -10.099693 L 165.3219 11.473225 L 164.22815 23.025309 L 151.983357 -10.099693 L 136.577106 -10.099693 L 128.712523 49.999269 L 142.577107 49.999269 L 145.363565 28.421143 L 146.509399 16.874267 L 158.775025 49.999269 L 174.181276 49.999269 Z M 195.519819 -10.099693 L 187.655235 49.999269 L 225.410446 49.999269 L 227.025029 37.358644 L 203.905236 37.358644 L 205.452111 25.660726 L 224.712529 25.660726 L 226.405237 13.0201 L 207.144819 13.0201 L 208.535444 2.540933 L 231.655238 2.540933 L 233.269821 -10.099693 Z M 259.394823 25.806559 C 267.56149 26.879476 269.025032 29.270101 268.707323 32.280518 L 268.634407 33.051352 C 268.332323 35.983643 266.09274 38.452394 261.087531 38.452394 L 260.316698 38.452394 C 255.311489 38.452394 253.077114 35.816977 253.920864 29.197185 L 239.285447 29.197185 L 239.11878 30.436768 C 237.347946 44.374269 244.910447 51.072186 259.545865 51.072186 C 273.712532 51.072186 282.196908 45.072186 283.436491 33.749268 L 283.587533 32.353435 C 284.884408 20.879476 279.186491 15.780517 266.316698 14.014892 C 258.379198 12.941975 257.082323 10.853434 257.384406 7.619058 L 257.457323 6.848225 C 257.780239 3.858641 260.243781 1.468016 264.472948 1.468016 L 265.243782 1.468016 C 270.644824 1.468016 272.18649 4.702391 271.24899 11.473225 L 285.900033 11.473225 L 286.123991 9.629475 C 287.821908 -4.084067 281.571908 -11.17261 266.56149 -11.17261 C 251.535447 -11.17261 243.74378 -3.933026 242.597947 6.697183 L 242.426072 8.087808 C 241.207322 18.941976 246.530239 24.113851 259.394823 25.806559 Z M 314.483368 25.806559 C 322.650035 26.879476 324.113577 29.270101 323.795869 32.280518 L 323.722952 33.051352 C 323.420869 35.983643 321.181285 38.452394 316.176077 38.452394 L 315.405243 38.452394 C 310.405243 38.452394 308.165659 35.816977 309.009409 29.197185 L 294.373992 29.197185 L 294.207325 30.436768 C 292.436492 44.374269 299.998992 51.072186 314.63441 51.072186 C 328.801077 51.072186 337.285453 45.072186 338.525036 33.749268 L 338.676078 32.353435 C 339.972953 20.879476 334.275036 15.780517 321.405244 14.014892 C 313.467743 12.941975 312.170868 10.853434 312.472951 7.619058 L 312.545868 6.848225 C 312.868785 3.858641 315.332327 1.468016 319.561493 1.468016 L 320.332327 1.468016 C 325.733369 1.468016 327.275036 4.702391 326.337536 11.473225 L 340.988578 11.473225 L 341.217745 9.629475 C 342.910453 -4.084067 336.660453 -11.17261 321.650035 -11.17261 C 306.623993 -11.17261 298.832325 -3.933026 297.686492 6.697183 L 297.514617 8.087808 C 296.295867 18.941976 301.618784 24.113851 314.483368 25.806559 Z M 314.483368 25.806559 " stroke="rgb(0%, 0%, 0%)" stroke-width="2.215196" stroke-opacity="1" stroke-miterlimit="4"/></svg>