<svg xmlns="http://www.w3.org/2000/svg" xmlns:xlink="http://www.w3.org/1999/xlink" width="500" zoomAndPan="magnify" viewBox="0 0 375 374.999991" height="500" preserveAspectRatio="xMidYMid meet" version="1.0"><defs><clipPath id="id1"><path d="M 97 87.703125 L 102 87.703125 L 102 164.953125 L 97 164.953125 Z M 97 87.703125 " clip-rule="nonzero"/></clipPath><clipPath id="id2"><path d="M 277 87.703125 L 281 87.703125 L 281 164.953125 L 277 164.953125 Z M 277 87.703125 " clip-rule="nonzero"/></clipPath></defs><path fill="rgb(100%, 46.269226%, 11.759949%)" d="M 186.816406 155.632812 L 177.355469 117.632812 L 171.128906 130.578125 L 104.796875 130.578125 L 104.796875 123.425781 L 166.613281 123.425781 L 179.511719 96.617188 L 189.175781 135.429688 L 195.375 123.425781 L 240.117188 123.425781 L 240.117188 130.578125 L 199.75 130.578125 Z M 186.816406 155.632812 " fill-opacity="1" fill-rule="nonzero"/><path fill="rgb(100%, 46.269226%, 11.759949%)" d="M 142.019531 156.648438 C 142.019531 158.917969 140.175781 160.757812 137.898438 160.757812 L 103.4375 160.757812 C 101.164062 160.757812 99.320312 158.917969 99.320312 156.648438 L 99.320312 96.007812 C 99.320312 93.738281 101.164062 91.898438 103.4375 91.898438 L 137.898438 91.898438 C 140.175781 91.898438 142.019531 93.738281 142.019531 96.007812 Z M 142.019531 156.648438 " fill-opacity="1" fill-rule="nonzero"/><path fill="rgb(100%, 46.269226%, 11.759949%)" d="M 99.320312 150.945312 C 99.320312 152.273438 98.238281 153.351562 96.90625 153.351562 L 76.726562 153.351562 C 75.394531 153.351562 74.3125 152.273438 74.3125 150.945312 L 74.3125 101.710938 C 74.3125 100.382812 75.394531 99.304688 76.726562 99.304688 L 96.90625 99.304688 C 98.238281 99.304688 99.320312 100.382812 99.320312 101.710938 Z M 99.320312 150.945312 " fill-opacity="1" fill-rule="nonzero"/><g clip-path="url(#id1)"><path fill="rgb(0%, 0%, 0%)" d="M 97.527344 87.695312 L 101.113281 87.695312 L 101.113281 164.960938 L 97.527344 164.960938 Z M 97.527344 87.695312 " fill-opacity="1" fill-rule="nonzero"/></g><path fill="rgb(100%, 46.269226%, 11.759949%)" d="M 236.132812 156.648438 C 236.132812 158.917969 237.976562 160.757812 240.25 160.757812 L 274.714844 160.757812 C 276.988281 160.757812 278.832031 158.917969 278.832031 156.648438 L 278.832031 96.007812 C 278.832031 93.738281 276.988281 91.898438 274.714844 91.898438 L 240.25 91.898438 C 237.976562 91.898438 236.132812 93.738281 236.132812 96.007812 Z M 236.132812 156.648438 " fill-opacity="1" fill-rule="nonzero"/><path fill="rgb(100%, 46.269226%, 11.759949%)" d="M 278.832031 150.945312 C 278.832031 152.273438 279.910156 153.351562 281.246094 153.351562 L 301.425781 153.351562 C 302.757812 153.351562 303.835938 152.273438 303.835938 150.945312 L 303.835938 101.710938 C 303.835938 100.382812 302.757812 99.304688 301.425781 99.304688 L 281.246094 99.304688 C 279.910156 99.304688 278.832031 100.382812 278.832031 101.710938 Z M 278.832031 150.945312 " fill-opacity="1" fill-rule="nonzero"/><g clip-path="url(#id2)"><path fill="rgb(0%, 0%, 0%)" d="M 277.039062 87.695312 L 280.625 87.695312 L 280.625 164.960938 L 277.039062 164.960938 Z M 277.039062 87.695312 " fill-opacity="1" fill-rule="nonzero"/></g><path fill="rgb(0%, 0%, 0%)" d="M 270.671875 103.097656 C 271.050781 103.597656 271.394531 104.117188 271.695312 104.660156 C 272 105.203125 272.261719 105.753906 272.476562 106.316406 C 272.691406 106.878906 272.863281 107.441406 272.984375 108.003906 C 273.105469 108.566406 273.175781 109.117188 273.195312 109.65625 C 273.214844 110.195312 273.1875 110.714844 273.105469 111.214844 C 273.027344 111.710938 272.894531 112.175781 272.71875 112.613281 C 272.539062 113.046875 272.316406 113.445312 272.046875 113.800781 C 271.777344 114.160156 271.46875 114.46875 271.117188 114.734375 C 270.769531 115 270.382812 115.210938 269.96875 115.375 C 269.550781 115.535156 269.105469 115.644531 268.636719 115.695312 C 268.167969 115.75 267.683594 115.746094 267.183594 115.691406 C 266.679688 115.632812 266.171875 115.519531 265.65625 115.355469 C 265.140625 115.1875 264.628906 114.972656 264.117188 114.703125 C 263.609375 114.4375 263.109375 114.121094 262.625 113.761719 C 262.140625 113.402344 261.679688 113.003906 261.238281 112.5625 C 260.796875 112.125 260.390625 111.65625 260.007812 111.15625 C 259.628906 110.660156 259.289062 110.136719 258.984375 109.597656 C 258.679688 109.054688 258.421875 108.503906 258.203125 107.941406 C 257.988281 107.378906 257.820312 106.816406 257.699219 106.253906 C 257.578125 105.691406 257.507812 105.140625 257.484375 104.601562 C 257.464844 104.058594 257.496094 103.539062 257.574219 103.042969 C 257.65625 102.546875 257.785156 102.078125 257.964844 101.644531 C 258.140625 101.207031 258.363281 100.8125 258.632812 100.457031 C 258.902344 100.097656 259.214844 99.789062 259.5625 99.523438 C 259.914062 99.257812 260.296875 99.046875 260.714844 98.882812 C 261.132812 98.722656 261.574219 98.613281 262.042969 98.558594 C 262.511719 98.507812 262.996094 98.507812 263.5 98.566406 C 264 98.625 264.507812 98.734375 265.023438 98.902344 C 265.539062 99.066406 266.054688 99.285156 266.5625 99.554688 C 267.074219 99.820312 267.570312 100.136719 268.054688 100.496094 C 268.539062 100.855469 269 101.253906 269.441406 101.691406 C 269.882812 102.132812 270.292969 102.601562 270.671875 103.097656 Z M 270.671875 103.097656 " fill-opacity="1" fill-rule="nonzero"/><path stroke-linecap="butt" transform="matrix(0.75, 0, 0, 0.75, 65.541958, 192.692932)" fill="none" stroke-linejoin="miter" d="M 112.98573 37.794843 C 121.428439 37.794843 125.813856 35.341718 129.24094 32.555259 L 131.92844 12.23755 L 115.714897 12.23755 L 114.459689 21.596925 L 119.824272 21.596925 L 119.084689 27.305259 C 117.944064 27.930259 115.839897 28.445884 114.183647 28.445884 L 113.558647 28.445884 C 108.136772 28.445884 107.105522 23.654217 108.136772 15.883383 L 108.418022 13.727133 C 109.449272 6.024008 111.214897 1.065674 116.636772 1.065674 L 117.261772 1.065674 C 121.537814 1.065674 122.162814 4.477132 121.480523 9.617758 L 132.319065 9.617758 L 132.610732 7.388591 C 133.975315 -3.335368 128.501356 -8.293702 117.610731 -8.293702 C 105.615938 -8.293702 99.459688 -1.679118 97.412813 13.727133 L 97.121146 15.883383 C 95.074271 31.289634 101.006563 37.794843 112.98573 37.794843 Z M 161.016984 23.310467 L 177.673235 -7.502035 L 165.80865 -7.502035 L 157.365942 9.951091 L 153.480525 -7.502035 L 141.610732 -7.502035 L 150.178441 23.310467 L 148.407608 36.997968 L 159.24615 36.997968 Z M 217.095112 11.3313 L 215.66282 19.883383 L 213.449279 36.997968 L 224.282613 36.997968 L 230.10553 -7.502035 L 213.964904 -7.502035 L 204.199278 18.169842 L 201.178444 -7.502035 L 185.03261 -7.502035 L 179.209693 36.997968 L 190.048235 36.997968 L 192.277402 19.883383 L 193.141986 11.3313 L 196.162819 36.997968 L 207.334695 36.997968 Z M 217.095112 11.3313 " stroke="rgb(0%, 0%, 0%)" stroke-width="1.640211" stroke-opacity="1" stroke-miterlimit="4"/><path stroke-linecap="butt" transform="matrix(0.75, 0, 0, 0.75, 65.990537, 239.157464)" fill="none" stroke-linejoin="miter" d="M 7.835535 -9.944328 L 0.382409 46.998384 L 14.246993 46.998384 L 17.241785 23.935883 L 35.491786 23.935883 L 37.095953 11.961923 L 18.845952 11.961923 L 20.168869 2.034839 L 42.069912 2.034839 L 43.601162 -9.944328 Z M 68.429289 -9.944328 L 54.543871 -9.944328 L 47.111579 46.998384 L 60.976163 46.998384 Z M 104.127208 2.034839 L 116.887625 2.034839 L 118.418875 -9.944328 L 79.012623 -9.944328 L 77.481372 2.034839 L 90.24179 2.034839 L 84.345956 46.998384 L 98.21054 46.998384 Z M 171.72617 -9.944328 L 158.569919 -9.944328 L 155.882419 10.498382 L 154.845961 21.441091 L 143.247002 -9.944328 L 128.648042 -9.944328 L 121.200125 46.998384 L 134.335543 46.998384 L 136.97096 26.555674 L 138.059501 15.612965 L 149.679294 46.998384 L 164.273045 46.998384 Z M 184.491796 -9.944328 L 177.043879 46.998384 L 212.814715 46.998384 L 214.345965 35.024425 L 192.439713 35.024425 L 193.903255 23.935883 L 212.153256 23.935883 L 213.757423 11.961923 L 195.507422 11.961923 L 196.82513 2.034839 L 218.731382 2.034839 L 220.262632 -9.944328 Z M 245.017842 24.081716 C 252.752217 25.097341 254.142842 27.357758 253.835551 30.211925 L 253.767842 30.941091 C 253.481384 33.722341 251.361592 36.055675 246.622009 36.055675 L 245.887634 36.055675 C 241.14805 36.055675 239.028258 33.560883 239.830341 27.290049 L 225.965757 27.290049 L 225.804299 28.467133 C 224.127215 41.670259 231.293883 48.014009 245.158467 48.014009 C 258.580343 48.014009 266.616802 42.331717 267.793885 31.60255 L 267.93451 30.284841 C 269.163677 19.409841 263.762635 14.581715 251.575134 12.904632 C 244.0543 11.889007 242.825133 9.90984 243.106383 6.84734 L 243.1793 6.118173 C 243.481383 3.279631 245.819925 1.019214 249.825134 1.019214 L 250.559509 1.019214 C 255.674093 1.019214 257.132426 4.081715 256.241801 10.498382 L 270.127218 10.498382 L 270.34076 8.75359 C 271.944927 -4.241203 266.02826 -10.959953 251.804301 -10.959953 C 237.564716 -10.959953 230.189716 -4.095369 229.101174 5.97234 L 228.939716 7.290048 C 227.783466 17.576507 232.825133 22.477549 245.017842 24.081716 Z M 297.210554 24.081716 C 304.944929 25.097341 306.335554 27.357758 306.033471 30.211925 L 305.960554 30.941091 C 305.674096 33.722341 303.554304 36.055675 298.81472 36.055675 L 298.085554 36.055675 C 293.340762 36.055675 291.22097 33.560883 292.023053 27.290049 L 278.158469 27.290049 L 277.997011 28.467133 C 276.325136 41.670259 283.486594 48.014009 297.351179 48.014009 C 310.773054 48.014009 318.809513 42.331717 319.986597 31.60255 L 320.13243 30.284841 C 321.361597 19.409841 315.960555 14.581715 303.767846 12.904632 C 296.247012 11.889007 295.017845 9.90984 295.304303 6.84734 L 295.37722 6.118173 C 295.679303 3.279631 298.012637 1.019214 302.023054 1.019214 L 302.752221 1.019214 C 307.866804 1.019214 309.330346 4.081715 308.439721 10.498382 L 322.31993 10.498382 L 322.533472 8.75359 C 324.137639 -4.241203 318.220972 -10.959953 304.002221 -10.959953 C 289.762636 -10.959953 282.382428 -4.095369 281.293886 5.97234 L 281.132428 7.290048 C 279.976177 17.576507 285.017844 22.477549 297.210554 24.081716 Z M 297.210554 24.081716 " stroke="rgb(0%, 0%, 0%)" stroke-width="2.09875" stroke-opacity="1" stroke-miterlimit="4"/></svg>